<?xml version="1.0" encoding="UTF-8"?>
<svg version="1.1" xmlns="http://www.w3.org/2000/svg" width="188" height="212">
<path d="M0 0 C0.68384766 0.176521 1.36769531 0.35304199 2.07226562 0.53491211 C8.87788788 2.31257736 15.65887402 4.18499016 22.4375 6.0625 C23.49912354 6.35511719 24.56074707 6.64773438 25.65454102 6.94921875 C31.37483264 8.55174859 36.91379584 10.31402346 42.4375 12.5 C43.56671875 12.93699219 44.6959375 13.37398437 45.859375 13.82421875 C54.18850467 17.2360336 61.10677137 21.2587061 68.4375 26.5 C69.4275 27.16 70.4175 27.82 71.4375 28.5 C71.4375 29.16 71.4375 29.82 71.4375 30.5 C72.02917969 30.768125 72.62085938 31.03625 73.23046875 31.3125 C85.893962 38.12613177 94.74275726 56.38999382 98.796875 69.6875 C99.79767872 73.2655985 100.65441945 76.86774501 101.4375 80.5 C101.62828125 81.27601562 101.8190625 82.05203125 102.015625 82.8515625 C105.43215026 104.29974883 100.04774791 127.6419686 87.5625 145.375 C86.21187248 147.10266695 84.83699682 148.81167644 83.4375 150.5 C82.76074219 151.33917969 82.08398438 152.17835938 81.38671875 153.04296875 C70.11353626 166.3358439 55.84306714 174.92210717 39.4375 180.5 C39.7675 181.82 40.0975 183.14 40.4375 184.5 C39.67824219 185.11488281 38.91898437 185.72976562 38.13671875 186.36328125 C37.14285156 187.17152344 36.14898437 187.97976562 35.125 188.8125 C33.64580078 190.01326172 33.64580078 190.01326172 32.13671875 191.23828125 C29.52676152 193.34442144 29.52676152 193.34442144 27.70703125 195.29296875 C26.4375 196.5 26.4375 196.5 24.4375 196.5 C24.4375 197.16 24.4375 197.82 24.4375 198.5 C22.46875 200.2265625 22.46875 200.2265625 19.9375 202.125 C19.1021875 202.75664062 18.266875 203.38828125 17.40625 204.0390625 C16.43171875 204.76222656 16.43171875 204.76222656 15.4375 205.5 C12.16233228 204.10011554 10.35184089 202.52367907 8.125 199.76171875 C7.52429688 199.02373047 6.92359375 198.28574219 6.3046875 197.52539062 C5.68851562 196.75388672 5.07234375 195.98238281 4.4375 195.1875 C3.82132812 194.42759766 3.20515625 193.66769531 2.5703125 192.88476562 C1.38076552 191.41570063 0.19566565 189.9430205 -0.984375 188.46630859 C-2.30362858 186.82254802 -3.64877046 185.19960892 -5 183.58203125 C-6.5625 181.5 -6.5625 181.5 -6.5625 179.5 C-7.52736328 179.29697266 -7.52736328 179.29697266 -8.51171875 179.08984375 C-20.14585839 176.31822988 -31.45195345 170.29435021 -40.5625 162.5 C-40.5625 161.84 -40.5625 161.18 -40.5625 160.5 C-41.13742188 160.25378906 -41.71234375 160.00757813 -42.3046875 159.75390625 C-54.32446627 153.07856198 -62.6971393 135.61820165 -66.5625 123 C-67.27330313 120.51218904 -67.93985709 118.01132639 -68.5625 115.5 C-68.74578857 114.79697754 -68.92907715 114.09395508 -69.11791992 113.36962891 C-70.48114383 107.82597269 -70.91419916 102.57511786 -70.875 96.875 C-70.86936035 96.00399658 -70.8637207 95.13299316 -70.85791016 94.2355957 C-70.41835382 70.51478574 -60.49794792 49.62125389 -43.92578125 32.828125 C-36.10579344 25.46551165 -28.24768635 19.71738408 -18.0625 16.1875 C-13.84529103 14.57471882 -13.84529103 14.57471882 -11.17578125 11.109375 C-10.41145741 8.55914328 -9.92656484 6.13411623 -9.5625 3.5 C-9.13671875 1.25390625 -9.13671875 1.25390625 -8.5625 -0.5 C-5.46956378 -2.04646811 -3.31276746 -0.85669065 0 0 Z M26.4375 22.5 C28.75744999 26.86315468 31.08178572 31.22391936 33.41210938 35.58154297 C34.26077712 37.16935991 35.10724141 38.75835435 35.953125 40.34765625 C42.92442879 53.30867221 50.56708911 65.86631089 58.50244141 78.25585938 C58.98632324 79.01318359 59.47020508 79.77050781 59.96875 80.55078125 C60.39736328 81.21762939 60.82597656 81.88447754 61.26757812 82.5715332 C62.43904678 84.50254967 63.45658506 86.46652709 64.4375 88.5 C65.0975 88.5 65.7575 88.5 66.4375 88.5 C66.78748047 89.53060547 66.78748047 89.53060547 67.14453125 90.58203125 C68.71317727 94.1221478 70.8387848 97.08952508 73.125 100.1875 C74.02536332 101.42272268 74.92509867 102.65840332 75.82421875 103.89453125 C76.26685059 104.50119629 76.70948242 105.10786133 77.16552734 105.73291016 C79.54290743 109.03568887 81.80034474 112.42233035 84.0625 115.8046875 C84.51625 116.36414063 84.97 116.92359375 85.4375 117.5 C86.0975 117.5 86.7575 117.5 87.4375 117.5 C88.0975 119.15 88.7575 120.8 89.4375 122.5 C90.9225 122.005 90.9225 122.005 92.4375 121.5 C99.47947013 107.08502695 97.46873619 85.07573646 92.60668945 70.40161133 C84.53509962 48.04516581 68.44967805 31.8079167 47.09765625 21.65234375 C38.81086108 18.06261603 34.0924941 17.18665704 26.4375 22.5 Z M-41.6875 40.3125 C-57.00404882 56.07883928 -63.72270063 74.38844793 -63.9375 96.0625 C-63.95159912 97.10325684 -63.96569824 98.14401367 -63.98022461 99.21630859 C-63.85318789 119.63545067 -54.5176367 138.85546283 -40.5625 153.5 C-33.06765049 160.38509068 -24.8544142 165.38142182 -15.5625 169.5 C-17.1197006 164.76539007 -19.7698449 161.28710908 -22.75 157.375 C-27.32592606 151.24828985 -31.55084442 145.01345391 -35.5625 138.5 C-36.29158305 137.34547793 -37.02214687 136.19189012 -37.75390625 135.0390625 C-42.83915155 127.00879868 -47.7930801 118.89778533 -52.6875 110.75 C-53.26838379 109.79697998 -53.84926758 108.84395996 -54.44775391 107.86206055 C-55.25092041 106.51494995 -55.25092041 106.51494995 -56.0703125 105.140625 C-56.55129395 104.34172852 -57.03227539 103.54283203 -57.52783203 102.71972656 C-58.5625 100.5 -58.5625 100.5 -58.5625 96.5 C-57.54671875 95.99210937 -56.5309375 95.48421875 -55.484375 94.9609375 C-54.82356934 94.6302124 -54.16276367 94.2994873 -53.48193359 93.95874023 C-52.02756792 93.23221208 -50.57214988 92.507787 -49.11572266 91.78540039 C-45.72961075 90.10278389 -42.3590554 88.40777412 -39.0390625 86.59765625 C-38.01554687 86.04980469 -36.99203125 85.50195312 -35.9375 84.9375 C-35.03773437 84.44121094 -34.13796875 83.94492188 -33.2109375 83.43359375 C-27.60825034 81.45860521 -22.47078902 84.1412121 -17.25 86.3125 C-16.63705078 86.56064453 -16.02410156 86.80878906 -15.39257812 87.06445312 C-12.0363805 88.43411633 -8.7324116 89.88312648 -5.44140625 91.40234375 C0.61733723 94.10886315 6.89628849 96.15747353 13.1875 98.25 C14.99541016 98.86681641 14.99541016 98.86681641 16.83984375 99.49609375 C18.00128906 99.88410156 19.16273437 100.27210937 20.359375 100.671875 C21.40706055 101.0234668 22.45474609 101.37505859 23.53417969 101.73730469 C26.31674778 102.46827868 28.57842676 102.65408179 31.4375 102.5 C29.90943582 98.18403148 27.65720072 94.51041438 25.1875 90.6875 C15.00611428 74.65909535 5.66166407 58.0937343 -3.5625 41.5 C-8.0535527 41.5 -10.54400612 42.85485733 -14.3125 45 C-14.91449219 45.33386719 -15.51648438 45.66773437 -16.13671875 46.01171875 C-17.61617476 46.83363876 -19.08992068 47.66582212 -20.5625 48.5 C-20.29771851 47.48631348 -20.29771851 47.48631348 -20.02758789 46.45214844 C-19.22651086 43.38482157 -18.42575204 40.31741172 -17.625 37.25 C-17.34720703 36.18652344 -17.06941406 35.12304688 -16.78320312 34.02734375 C-16.38198242 32.49013672 -16.38198242 32.49013672 -15.97265625 30.921875 C-15.72652588 29.97924805 -15.48039551 29.03662109 -15.22680664 28.06542969 C-14.66078694 25.87956602 -14.10588582 23.69158097 -13.5625 21.5 C-22.95315644 21.5 -35.44056959 34.3004166 -41.6875 40.3125 Z M88.4375 127.5 C87.03247488 128.80436021 85.62748445 130.10875779 84.22265625 131.41333008 C83.02659764 132.51827755 81.82601315 133.61834483 80.62109375 134.71362305 C78.0645485 137.03998259 75.58525143 139.33852879 73.25 141.890625 C70.58219333 144.71942 68.74366587 146.41446874 64.75683594 146.67553711 C55.83029007 145.8850334 47.33303211 144.01606831 38.6875 141.75 C37.27148303 141.38738989 35.85530323 141.0254151 34.43896484 140.6640625 C25.64434183 138.40581408 16.90015179 136.0004214 8.2265625 133.3125 C5.60163659 132.40676994 5.60163659 132.40676994 3.4375 132.5 C7.91671581 142.22829683 15.42441107 151.00031437 22.015625 159.40234375 C23.59144227 161.41786487 25.14494873 163.45109803 26.671875 165.50390625 C27.35765625 166.41011719 28.0434375 167.31632812 28.75 168.25 C29.64138672 169.44882813 29.64138672 169.44882813 30.55078125 170.671875 C32.91185718 172.95962559 34.16336544 173.364785 37.4375 173.5 C58.48167507 168.07653475 74.72442466 153.46226925 86.2734375 135.671875 C88.04659029 132.67565244 88.04659029 132.67565244 89.4375 129.5 C88.9425 128.51 88.9425 128.51 88.4375 127.5 Z " fill="#0D7FD8" transform="translate(79.5625,4.5)"/>
<path d="M0 0 C-0.66 0.99 -1.32 1.98 -2 3 C4.92933355 15.18919744 11.9775639 27.26248713 19.75 38.9375 C20.34570801 39.83621826 20.94141602 40.73493652 21.55517578 41.66088867 C24.17112753 45.98273553 24.17112753 45.98273553 28 49 C28.93422194 50.63222831 29.86431562 52.2669641 30.77294922 53.91357422 C33.0773745 57.8319225 35.84670131 61.42292248 38.5625 65.0625 C39.17730225 65.8879834 39.79210449 66.7134668 40.42553711 67.56396484 C41.67833775 69.2409574 42.93360963 70.91610679 44.19140625 72.58935547 C45.3480693 74.13105242 46.49962628 75.67660197 47.64453125 77.22705078 C49.10400878 79.20334963 50.58011836 81.16585167 52.0625 83.125 C52.49054932 83.71031494 52.91859863 84.29562988 53.35961914 84.89868164 C55.19886925 87.28923527 56.61176308 88.84145952 59.4296875 89.9921875 C72.45809595 90.03178753 87.88077178 78.56987712 97 70 C99.50585197 67.11174692 101.809673 64.133183 104 61 C104.66 61.99 105.32 62.98 106 64 C104.66356953 67.06786501 103.31089429 68.81583908 100.6875 70.875 C98.30107291 72.75196513 96.59120449 74.5118532 94.67578125 76.91015625 C92.05362322 80.11849044 88.99855166 82.37774423 85.5 84.5625 C84.89559082 84.945271 84.29118164 85.32804199 83.66845703 85.72241211 C76.80668164 89.93057548 69.168278 94 61 94 C61.66 95.98 62.32 97.96 63 100 C60.19195732 102.96404505 57.81684226 105.44499019 54 107 C54.495 105.515 54.495 105.515 55 104 C45.58534785 112.17799253 45.58534785 112.17799253 38 122 C34.24052846 118.34287342 30.80129861 114.52162885 27.4375 110.5 C26.96892578 109.94441406 26.50035156 109.38882813 26.01757812 108.81640625 C24.67168782 107.2163968 23.33538669 105.60877695 22 104 C21.22785156 103.0821875 20.45570312 102.164375 19.66015625 101.21875 C18 99 18 99 18 97 C17.01 96.505 17.01 96.505 16 96 C15.31513275 94.67592331 14.65129797 93.34090759 14 92 C12.58022091 89.77256213 12.58022091 89.77256213 11 88 C10.34 88 9.68 88 9 88 C8.47664063 87.03964844 7.95328125 86.07929688 7.4140625 85.08984375 C4.71086736 80.36103223 1.53820851 75.99064957 -1.625 71.5625 C-12.59709301 56.01681244 -22.13895767 39.76502319 -31.64648438 23.28979492 C-32.70884457 21.49255894 -33.84192914 19.73710629 -35 18 C-35.08203125 15.55859375 -35.08203125 15.55859375 -34 13 C-31.53847828 11.42862266 -29.32803484 10.24084844 -26.6875 9.0625 C-25.22492587 8.37831888 -23.7626892 7.69341591 -22.30078125 7.0078125 C-21.5732666 6.67297852 -20.84575195 6.33814453 -20.09619141 5.99316406 C-16.19389882 4.14427911 -12.42865204 2.0186691 -8.6484375 -0.06640625 C-5.39253896 -1.2141345 -3.31210378 -0.81102834 0 0 Z " fill="#118FDD" transform="translate(55,87)"/>
<path d="M0 0 C4.46945443 0.19432411 7.70206484 1.23564919 11.7109375 3.19921875 C19.17926663 6.66199966 26.93695807 9.13533189 34.75 11.6875 C36.23064349 12.17720636 37.71111339 12.6674379 39.19140625 13.15820312 C40.62224135 13.63067642 42.0532258 14.10269774 43.484375 14.57421875 C44.46117218 14.89612434 44.46117218 14.89612434 45.45770264 15.22453308 C49.6146814 16.58172037 53.78998666 17.82131837 58 19 C58 19.66 58 20.32 58 21 C58.99 21 59.98 21 61 21 C62.26757812 22.32250977 62.26757812 22.32250977 63.53125 24.19140625 C64.00675293 24.88177979 64.48225586 25.57215332 64.97216797 26.28344727 C65.47635254 27.03553467 65.98053711 27.78762207 66.5 28.5625 C67.57426676 30.12586248 68.64981469 31.68834528 69.7265625 33.25 C70.27086914 34.0440625 70.81517578 34.838125 71.37597656 35.65625 C75.07778853 40.99861243 78.97380984 46.20110349 82.84277344 51.42285156 C83.88287255 52.8403706 84.89999214 54.27468275 85.9140625 55.7109375 C87.20655254 57.52551712 88.59117223 59.27418598 90 61 C93.00185643 61.3409382 93.00185643 61.3409382 94.61328125 59.49609375 C95.17402344 58.81675781 95.73476562 58.13742188 96.3125 57.4375 C96.91835937 56.71433594 97.52421875 55.99117187 98.1484375 55.24609375 C98.75945312 54.50488281 99.37046875 53.76367188 100 53 C101.14329607 51.6644904 102.28890491 50.33095497 103.4375 49 C104.283125 48.01 105.12875 47.02 106 46 C107.485 46.495 107.485 46.495 109 47 C109.598125 46.175 110.19625 45.35 110.8125 44.5 C111.534375 43.675 112.25625 42.85 113 42 C113.99 42 114.98 42 116 42 C114.42843549 46.04251835 111.55068186 48.50982545 108.375 51.3125 C107.27694933 52.2821056 106.17929307 53.25215803 105.08203125 54.22265625 C104.54916504 54.6933252 104.01629883 55.16399414 103.46728516 55.64892578 C101.84072964 57.10813326 101.84072964 57.10813326 99.88671875 59.30859375 C97.20155147 62.16625572 95.33041288 63.91128972 91.30883789 64.17944336 C82.43562952 63.38274282 73.9738199 61.55620494 65.375 59.3125 C63.9655709 58.95282664 62.55606495 58.59345427 61.14648438 58.234375 C50.64204086 55.53397238 40.26869772 52.49347448 30 49 C30 48.34 30 47.68 30 47 C28.515 47.495 28.515 47.495 27 48 C23.65490277 42.67396666 20.32216227 37.34037034 17 32 C16.5246582 31.23606934 16.04931641 30.47213867 15.55957031 29.68505859 C9.72014154 20.27842231 4.09141703 10.83529705 -1 1 C-0.67 0.67 -0.34 0.34 0 0 Z " fill="#0C49DA" transform="translate(53,88)"/>
<path d="M0 0 C-0.09375 2.75390625 -0.09375 2.75390625 -1 6 C-3.21197613 7.62555938 -5.07232934 8.75390479 -7.5 9.9375 C-8.78789956 10.61984709 -10.07306669 11.30737616 -11.35546875 12 C-11.98243652 12.33644531 -12.6094043 12.67289063 -13.25537109 13.01953125 C-31.02814889 23.00770304 -43.40561231 41.57832135 -48.9375 60.875 C-50.24083147 67.39165736 -50.3092799 73.93109871 -50.375 80.5625 C-50.38909912 81.60325684 -50.40319824 82.64401367 -50.41772461 83.71630859 C-50.29520934 103.40869928 -41.51311205 122.78032 -28 137 C-20.85329587 143.47339418 -11.36390581 151.39742338 -1.828125 153.47265625 C1.38681421 154.40004256 2.3997877 157.24101328 4 160 C4.33 160.99 4.66 161.98 5 163 C-0.97858657 162.5380783 -5.18387827 161.32348566 -10.375 158.375 C-11.01767822 158.02034668 -11.66035645 157.66569336 -12.32250977 157.30029297 C-17.74927555 154.25447238 -23.29500046 151.09611725 -28 147 C-28 146.34 -28 145.68 -28 145 C-28.57492188 144.75378906 -29.14984375 144.50757813 -29.7421875 144.25390625 C-41.76196627 137.57856198 -50.1346393 120.11820165 -54 107.5 C-54.71080313 105.01218904 -55.37735709 102.51132639 -56 100 C-56.18328857 99.29697754 -56.36657715 98.59395508 -56.55541992 97.86962891 C-57.91864383 92.32597269 -58.35169916 87.07511786 -58.3125 81.375 C-58.30686035 80.50399658 -58.3012207 79.63299316 -58.29541016 78.7355957 C-57.85585382 55.01478574 -47.93544792 34.12125389 -31.36328125 17.328125 C-23.4948378 9.91989008 -11.70021031 -1.06365548 0 0 Z " fill="#1987D7" transform="translate(67,20)"/>
<path d="M0 0 C-0.09375 2.75390625 -0.09375 2.75390625 -1 6 C-3.21197613 7.62555938 -5.07232934 8.75390479 -7.5 9.9375 C-8.78789956 10.61984709 -10.07306669 11.30737616 -11.35546875 12 C-11.98243652 12.33644531 -12.6094043 12.67289063 -13.25537109 13.01953125 C-31.76132142 23.41974067 -43.63972943 42.49863516 -49.375 62.4375 C-52.03272061 73.0224432 -51.84236238 84.15018297 -52 95 C-52.33 95 -52.66 95 -53 95 C-53.88563089 91.20925463 -54.11681301 87.71304102 -54.09765625 83.82421875 C-54.09443359 82.66728516 -54.09121094 81.51035156 -54.08789062 80.31835938 C-54.07951172 79.12017578 -54.07113281 77.92199219 -54.0625 76.6875 C-54.05798828 75.46998047 -54.05347656 74.25246094 -54.04882812 72.99804688 C-54.03706578 69.99864774 -54.02062826 66.99934911 -54 64 C-54.66 64.99 -55.32 65.98 -56 67 C-55.92019356 47.8065514 -44.41816042 30.55706923 -31.36328125 17.328125 C-23.4948378 9.91989008 -11.70021031 -1.06365548 0 0 Z " fill="#367DD6" transform="translate(67,20)"/>
<path d="M0 0 C6.90669237 2.49194691 10.31765501 11.68829726 13.48828125 17.9296875 C23.309162 39.88224447 23.83550246 63.80122252 15.45703125 86.29296875 C12.09704471 94.71798031 7.80814036 101.99318152 2 109 C1.32324219 109.83917969 0.64648438 110.67835938 -0.05078125 111.54296875 C-11.32396374 124.8358439 -25.59443286 133.42210717 -42 139 C-41.505 140.98 -41.505 140.98 -41 143 C-41.75925781 143.61488281 -42.51851562 144.22976562 -43.30078125 144.86328125 C-44.29464844 145.67152344 -45.28851563 146.47976562 -46.3125 147.3125 C-47.29863281 148.11300781 -48.28476563 148.91351563 -49.30078125 149.73828125 C-51.91073848 151.84442144 -51.91073848 151.84442144 -53.73046875 153.79296875 C-55 155 -55 155 -57 155 C-57 155.66 -57 156.32 -57 157 C-58.8984375 158.7265625 -58.8984375 158.7265625 -61.375 160.625 C-62.18710938 161.25664062 -62.99921875 161.88828125 -63.8359375 162.5390625 C-66 164 -66 164 -68 164 C-65.60890229 155.49831927 -57.52660946 149.42471436 -51 144 C-50.34 144.33 -49.68 144.66 -49 145 C-48.54625 144.54625 -48.0925 144.0925 -47.625 143.625 C-46.41666667 142.41666667 -45.20833333 141.20833333 -44 140 C-44.32041397 137.39719432 -44.32041397 137.39719432 -45 135 C-44.24976562 134.76925781 -43.49953125 134.53851563 -42.7265625 134.30078125 C-29.31216052 130.02641891 -16.40659765 124.08943013 -7.54296875 112.73046875 C-5.01195632 109.89189025 -1.93559599 107.78632342 1.14453125 105.578125 C3.27309375 104.04367438 3.27309375 104.04367438 4 101 C4.66 101 5.32 101 6 101 C6.10699219 100.29617187 6.21398437 99.59234375 6.32421875 98.8671875 C7.08349195 95.64576247 8.32694016 93.08107605 9.8125 90.125 C18.20106469 71.87229176 21.28296189 48.51547678 14.9375 29 C14.02929134 26.63814293 13.05087937 24.30192623 12 22 C11.72172363 21.3719043 11.44344727 20.74380859 11.15673828 20.09667969 C8.70251574 14.61077048 6.22327223 9.3154095 2.28125 4.7265625 C0 2 0 2 0 0 Z " fill="#264DA3" transform="translate(161,46)"/>
<path d="M0 0 C0.68312256 0.1757959 1.36624512 0.3515918 2.07006836 0.53271484 C15.2505166 3.96809787 28.3442028 7.74844534 41.4375 11.5 C38.19109085 14.060881 34.76809284 16.12476717 31.1875 18.1875 C30.10984375 18.81011719 29.0321875 19.43273437 27.921875 20.07421875 C27.10203125 20.54472656 26.2821875 21.01523437 25.4375 21.5 C24.9425 19.52 24.9425 19.52 24.4375 17.5 C26.4175 16.18 28.3975 14.86 30.4375 13.5 C27.58413795 11.59775863 25.98664587 11.01090274 22.7265625 10.28125 C21.81132813 10.07113281 20.89609375 9.86101563 19.953125 9.64453125 C18.99921875 9.43183594 18.0453125 9.21914062 17.0625 9 C15.17886328 8.57656668 13.29601867 8.14959109 11.4140625 7.71875 C10.57955566 7.53248047 9.74504883 7.34621094 8.88525391 7.15429688 C6.4375 6.5 6.4375 6.5 4.06396484 5.42382812 C0.76664762 4.26403556 -2.09359344 4.36396445 -5.5625 4.5 C-6.84747264 9.16220275 -8.1291364 13.82529744 -9.40771484 18.48925781 C-9.84332444 20.07642297 -10.27984418 21.66333862 -10.71728516 23.25 C-11.34515852 25.52799859 -11.96977499 27.80686847 -12.59375 30.0859375 C-12.79061401 30.79744965 -12.98747803 31.50896179 -13.19030762 32.24203491 C-14.21042403 35.8189119 -14.21042403 35.8189119 -14.5625 39.5 C-13.94761719 39.12746094 -13.33273438 38.75492188 -12.69921875 38.37109375 C-11.89097656 37.89800781 -11.08273438 37.42492188 -10.25 36.9375 C-9.44949219 36.46183594 -8.64898437 35.98617187 -7.82421875 35.49609375 C-5.5625 34.5 -5.5625 34.5 -2.5625 35.5 C-0.15867374 38.88596559 1.71096586 42.60172437 3.6875 46.25 C4.2546875 47.25289062 4.821875 48.25578125 5.40625 49.2890625 C5.93734375 50.26101562 6.4684375 51.23296875 7.015625 52.234375 C7.50450195 53.12350586 7.99337891 54.01263672 8.49707031 54.92871094 C9.58982202 57.91647339 9.33970647 59.49309597 8.4375 62.5 C6.04298704 60.30021237 4.51251942 58.11789271 2.95703125 55.26953125 C2.51552734 54.46708984 2.07402344 53.66464844 1.61914062 52.83789062 C1.16732422 52.00451172 0.71550781 51.17113281 0.25 50.3125 C-0.44512695 49.0450293 -0.44512695 49.0450293 -1.15429688 47.75195312 C-2.29500781 45.67044966 -3.43087109 43.58645072 -4.5625 41.5 C-8.83306128 43.11752232 -12.63574149 45.18628833 -16.57421875 47.4765625 C-18.5625 48.5 -18.5625 48.5 -20.5625 48.5 C-19.93009717 41.23182094 -18.02273833 34.49346756 -16 27.5 C-15.67064453 26.34371094 -15.34128906 25.18742187 -15.00195312 23.99609375 C-14.19403335 21.16252006 -13.38076057 18.33060143 -12.5625 15.5 C-13.2225 15.17 -13.8825 14.84 -14.5625 14.5 C-14.09972656 14.13132812 -13.63695313 13.76265625 -13.16015625 13.3828125 C-11.01847046 10.85886983 -10.6791832 8.5962689 -10 5.375 C-9.58144449 3.40282318 -9.11521931 1.4388583 -8.5625 -0.5 C-5.46956378 -2.04646811 -3.31276746 -0.85669065 0 0 Z " fill="#2FDCF4" transform="translate(79.5625,4.5)"/>
<path d="M0 0 C0.78890625 0.28875 1.5778125 0.5775 2.390625 0.875 C3.27878906 1.17535156 4.16695312 1.47570312 5.08203125 1.78515625 C12.88994904 4.91894639 19.54065821 9.01892025 26.390625 13.875 C27.380625 14.535 28.370625 15.195 29.390625 15.875 C29.390625 16.535 29.390625 17.195 29.390625 17.875 C29.98359375 18.13023438 30.5765625 18.38546875 31.1875 18.6484375 C33.60287038 19.99316498 34.90274206 21.36714367 36.640625 23.5 C37.42179687 24.44746094 37.42179687 24.44746094 38.21875 25.4140625 C38.79882812 26.13722656 38.79882812 26.13722656 39.390625 26.875 C36.390625 26.875 36.390625 26.875 34.78515625 25.6328125 C34.26308594 25.09398438 33.74101562 24.55515625 33.203125 24 C32.67332031 23.46632813 32.14351562 22.93265625 31.59765625 22.3828125 C30.390625 20.875 30.390625 20.875 30.390625 18.875 C29.58625 18.606875 28.781875 18.33875 27.953125 18.0625 C27.1075 17.670625 26.261875 17.27875 25.390625 16.875 C24.895625 15.39 24.895625 15.39 24.390625 13.875 C22.740625 13.875 21.090625 13.875 19.390625 13.875 C19.390625 14.535 19.390625 15.195 19.390625 15.875 C19.97328125 16.14054687 20.5559375 16.40609375 21.15625 16.6796875 C29.94398135 21.38081651 39.29719111 30.79825529 43.390625 39.875 C43.060625 40.865 42.730625 41.855 42.390625 42.875 C41.978125 42.25753906 41.565625 41.64007813 41.140625 41.00390625 C30.39084379 25.23916015 16.94751372 13.65609039 -1.421875 7.4375 C-6.95231273 6.4615404 -11.55486898 7.57749726 -16.609375 9.875 C-16.609375 9.215 -16.609375 8.555 -16.609375 7.875 C-14.38982849 6.50242523 -12.16102091 5.15240849 -9.921875 3.8125 C-9.29603516 3.42255859 -8.67019531 3.03261719 -8.02539062 2.63085938 C-5.25350108 0.99094567 -3.26696418 -0.15650128 0 0 Z " fill="#196CCB" transform="translate(121.609375,17.125)"/>
<path d="M0 0 C4.84282435 0.44025676 6.84205645 1.33271071 10 5 C13.17166747 8.25299228 16.32399486 11.31750976 20 14 C20.66 14 21.32 14 22 14 C22.10957031 14.74121094 22.21914062 15.48242188 22.33203125 16.24609375 C23.03365815 19.13876604 23.94070699 20.68301031 25.6875 23.0625 C38.37604449 41.50196754 39.63793418 58.24644455 39 80 C38.34 80 37.68 80 37 80 C36.67 75.71 36.34 71.42 36 67 C35.67 67 35.34 67 35 67 C34.92523438 66.030625 34.85046875 65.06125 34.7734375 64.0625 C33.86924727 54.26813382 31.56228374 45.88411034 27.75390625 36.83691406 C27.05648159 35.13761899 26.43107165 33.4092464 25.8125 31.6796875 C21.72480066 20.58044832 13.91154018 13.560728 5.1640625 5.91015625 C3.36890059 4.32561803 1.62602012 2.75715077 0 1 C0 0.67 0 0.34 0 0 Z " fill="#24C4ED" transform="translate(140,30)"/>
<path d="M0 0 C0.66 0 1.32 0 2 0 C2.23332031 0.57105469 2.46664063 1.14210937 2.70703125 1.73046875 C7.83254375 13.12250889 16.14900179 22.21241654 26.19921875 29.51171875 C26.79347656 30.00285156 27.38773438 30.49398437 28 31 C28 31.66 28 32.32 28 33 C29.98 33.33 31.96 33.66 34 34 C32.93844996 33.0822334 31.87570321 32.16585095 30.8125 31.25 C30.17828125 30.7034375 29.5440625 30.156875 28.890625 29.59375 C27.31779514 28.26789342 25.69559234 27.00087924 24.0625 25.75 C23.0415625 24.88375 23.0415625 24.88375 22 24 C22 23.34 22 22.68 22 22 C21.01 21.67 20.02 21.34 19 21 C19.33 20.01 19.66 19.02 20 18 C20.8971875 18.99 20.8971875 18.99 21.8125 20 C28.25733218 26.42657487 38.00084085 34.51493856 47.1171875 36.44921875 C50.37103646 37.40107083 51.37449828 40.19741083 53 43 C53.33 43.99 53.66 44.98 54 46 C48.02141343 45.5380783 43.81612173 44.32348566 38.625 41.375 C37.98232178 41.02034668 37.33964355 40.66569336 36.67749023 40.30029297 C31.25072445 37.25447238 25.70499954 34.09611725 21 30 C21 29.34 21 28.68 21 28 C20.42765625 27.75765625 19.8553125 27.5153125 19.265625 27.265625 C10.15670874 22.17719592 4.48573217 11.09369138 0 2 C0 1.34 0 0.68 0 0 Z " fill="#1061D1" transform="translate(18,137)"/>
<path d="M0 0 C-0.02094727 0.73412109 -0.04189453 1.46824219 -0.06347656 2.22460938 C-0.49832222 19.80558432 -0.10843739 34.76143775 7.265625 50.984375 C8 53 8 53 8 57 C7.34 57 6.68 57 6 57 C6 56.01 6 55.02 6 54 C4.515 54.495 4.515 54.495 3 55 C-3.79065512 37.09736378 -7.19900721 20.14244636 -4 1 C-1 0 -1 0 0 0 Z " fill="#4CA9E0" transform="translate(14,83)"/>
<path d="M0 0 C-0.09375 2.75390625 -0.09375 2.75390625 -1 6 C-3.21194164 7.62553404 -5.07228955 8.754046 -7.5 9.9375 C-8.78662775 10.61848321 -10.07049235 11.30471225 -11.3515625 11.99609375 C-11.97836914 12.33237793 -12.60517578 12.66866211 -13.25097656 13.01513672 C-20.478745 17.08504429 -26.32266101 23.04420842 -32 29 C-32.33 28.01 -32.66 27.02 -33 26 C-32.50628906 25.54109375 -32.01257812 25.0821875 -31.50390625 24.609375 C-30.54291016 23.68898438 -30.54291016 23.68898438 -29.5625 22.75 C-28.92441406 22.14671875 -28.28632812 21.5434375 -27.62890625 20.921875 C-25.85210816 18.8255089 -25.51380804 17.65384348 -25 15 C-23.05166308 8.34060501 -17.75562168 6.22410343 -12 3 C-8.00626961 0.88828727 -4.60198601 -0.41836236 0 0 Z " fill="#2962C0" transform="translate(67,20)"/>
<path d="M0 0 C6.90669237 2.49194691 10.31765501 11.68829726 13.48828125 17.9296875 C22.91287824 38.99643372 22.95219682 59.9981296 17 82 C16.34 81.67 15.68 81.34 15 81 C15.14230808 79.58297487 15.28900746 78.1663904 15.4375 76.75 C15.51871094 75.96109375 15.59992188 75.1721875 15.68359375 74.359375 C16 72 16 72 16.50268555 70.25195312 C19.80580388 55.29468089 18.30753934 35.81651475 12 22 C11.72172363 21.3719043 11.44344727 20.74380859 11.15673828 20.09667969 C8.70251574 14.61077048 6.22327223 9.3154095 2.28125 4.7265625 C0 2 0 2 0 0 Z " fill="#2E63B7" transform="translate(161,46)"/>
<path d="M0 0 C0.33 0.99 0.66 1.98 1 3 C0.03125 4.515625 0.03125 4.515625 -1.5 6.25 C-15.15323552 23.64993736 -16.69124045 44.74882516 -17 66 C-17.33 66 -17.66 66 -18 66 C-22.52426808 47.57188369 -17.68061743 27.37743155 -9 11 C-8.34 11 -7.68 11 -7 11 C-6.9071875 9.9171875 -6.9071875 9.9171875 -6.8125 8.8125 C-5.75187255 5.1410973 -3.80330069 3.52297062 -1 1 C-0.67 0.67 -0.34 0.34 0 0 Z " fill="#2754A1" transform="translate(32,49)"/>
<path d="M0 0 C0.66 0.33 1.32 0.66 2 1 C-0.42832774 18.6053761 -13.97689957 32.98881905 -27 44 C-27.7109375 42.26953125 -27.7109375 42.26953125 -28 40 C-24.22540106 34.02907011 -18.48110052 29.55261684 -12.78515625 25.5078125 C-10.72051568 24.02938272 -10.72051568 24.02938272 -10 21 C-9.34 21 -8.68 21 -8 21 C-7.896875 20.31164062 -7.79375 19.62328125 -7.6875 18.9140625 C-6.87427362 15.4670916 -5.52706921 12.56863033 -4 9.375 C-1.80386182 4.76645998 -1.80386182 4.76645998 0 0 Z " fill="#30539B" transform="translate(175,126)"/>
<path d="M0 0 C0.66 0.33 1.32 0.66 2 1 C-2.52295873 6.49216417 -8.53841143 9.2225668 -15 12 C-15.66 12 -16.32 12 -17 12 C-16.41089844 13.10859375 -15.82179688 14.2171875 -15.21484375 15.359375 C-14.45509797 16.8225891 -13.69601794 18.28614902 -12.9375 19.75 C-12.35258789 20.84441406 -12.35258789 20.84441406 -11.75585938 21.9609375 C-11.20961914 23.02441406 -11.20961914 23.02441406 -10.65234375 24.109375 C-10.14175415 25.08342285 -10.14175415 25.08342285 -9.62084961 26.07714844 C-8.86441956 28.41991018 -9.21178181 29.70456573 -10 32 C-12.91283818 28.48651005 -15.44750067 24.90349363 -17.8125 21 C-18.43769531 19.989375 -19.06289063 18.97875 -19.70703125 17.9375 C-21 15 -21 15 -21.1875 12.38671875 C-19.28531852 8.56358426 -15.96838171 7.50943116 -12.1875 5.8125 C-11.46240234 5.47025391 -10.73730469 5.12800781 -9.99023438 4.77539062 C-8.63306232 4.13591797 -7.27231832 3.50393147 -5.90698242 2.88208008 C-3.94028885 2.00051066 -3.94028885 2.00051066 -1.8840332 0.8269043 C-1.26230225 0.55402588 -0.64057129 0.28114746 0 0 Z " fill="#32D0EF" transform="translate(41,90)"/>
<path d="M0 0 C0.66 0 1.32 0 2 0 C4.04430895 3.54951349 6.05614694 7.11641572 8.0625 10.6875 C8.64322266 11.69490234 9.22394531 12.70230469 9.82226562 13.74023438 C10.36689453 14.71669922 10.91152344 15.69316406 11.47265625 16.69921875 C11.98062744 17.59471436 12.48859863 18.49020996 13.01196289 19.4128418 C14.16044703 22.42012779 13.92171614 23.96192783 13 27 C10.60548704 24.80021237 9.07501942 22.61789271 7.51953125 19.76953125 C7.07802734 18.96708984 6.63652344 18.16464844 6.18164062 17.33789062 C5.72982422 16.50451172 5.27800781 15.67113281 4.8125 14.8125 C4.34908203 13.96751953 3.88566406 13.12253906 3.40820312 12.25195312 C2.26749219 10.17044966 1.13162891 8.08645072 0 6 C-4.27056128 7.61752232 -8.07324149 9.68628833 -12.01171875 11.9765625 C-14 13 -14 13 -16 13 C-16 12.34 -16 11.68 -16 11 C-14.51886719 10.18595703 -14.51886719 10.18595703 -13.0078125 9.35546875 C-11.71333285 8.63318662 -10.41907342 7.91050971 -9.125 7.1875 C-8.47402344 6.83107422 -7.82304688 6.47464844 -7.15234375 6.10742188 C-3.93402097 4.29918897 -2.0803217 3.12048255 0 0 Z " fill="#37B2D2" transform="translate(75,40)"/>
<path d="M0 0 C4.84282435 0.44025676 6.84205645 1.33271071 10 5 C13.17166747 8.25299228 16.32399486 11.31750976 20 14 C20.66 14 21.32 14 22 14 C22.061875 14.680625 22.12375 15.36125 22.1875 16.0625 C23.1454926 19.52601171 24.74989403 21.64929804 26.94140625 24.44921875 C28 26 28 26 28 28 C27.34 28 26.68 28 26 28 C26.55880859 29.01320313 26.55880859 29.01320313 27.12890625 30.046875 C27.60199219 30.93890625 28.07507813 31.8309375 28.5625 32.75 C29.03816406 33.63171875 29.51382813 34.5134375 30.00390625 35.421875 C31.07998186 38.20701188 31.06528748 39.26980214 30 42 C29.22563847 40.33496966 28.45571885 38.66787338 27.6875 37 C27.22214844 35.99066406 26.75679687 34.98132813 26.27734375 33.94140625 C25.26093575 31.60087041 24.47500441 29.37251481 23.75 26.9375 C20.59126977 18.29069658 11.89071201 11.79330526 5.1640625 5.91015625 C3.36890059 4.32561803 1.62602012 2.75715077 0 1 C0 0.67 0 0.34 0 0 Z " fill="#1090DD" transform="translate(140,30)"/>
<path d="M0 0 C0.99 0 1.98 0 3 0 C4.41454029 4.24362088 2.5079737 6.79871125 0.6875 10.625 C-1.95743462 16.38632088 -3.9876555 21.70096753 -5 28 C-5.66 27.67 -6.32 27.34 -7 27 C-7.66 27.99 -8.32 28.98 -9 30 C-8.95455571 19.07064906 -4.97325692 9.5861329 0 0 Z " fill="#3794DC" transform="translate(20,57)"/>
<path d="M0 0 C0.99 0 1.98 0 3 0 C1.42809415 4.04339638 -1.45048549 6.50778448 -4.625 9.3125 C-5.16406982 9.79307861 -5.70313965 10.27365723 -6.25854492 10.76879883 C-7.33957954 11.73206666 -8.42215527 12.69360805 -9.50634766 13.65332031 C-10.80887679 14.82768297 -12.07049547 16.04710649 -13.32421875 17.2734375 C-16.65265821 20.47763266 -18.18558726 21.8817788 -22.875 22.5625 C-26 22 -26 22 -28 20 C-26.824375 20 -25.64875 20 -24.4375 20 C-19.53432776 19.39467009 -17.62739174 16.97000005 -14.67578125 13.2109375 C-13.84626953 12.11652344 -13.84626953 12.11652344 -13 11 C-11.86271915 9.6593643 -10.71749544 8.3254046 -9.5625 7 C-8.716875 6.01 -7.87125 5.02 -7 4 C-6.01 4.33 -5.02 4.66 -4 5 C-3.401875 4.175 -2.80375 3.35 -2.1875 2.5 C-1.1046875 1.2625 -1.1046875 1.2625 0 0 Z " fill="#1A4AAE" transform="translate(166,130)"/>
<path d="M0 0 C-0.3125 2.875 -0.3125 2.875 -1 6 C-4.00775842 8.00517228 -6.44831536 8.62230022 -9.92578125 9.42578125 C-12.82835646 10.22931902 -15.36992619 11.55345941 -18 13 C-17.13089123 8.94415905 -16.3505797 5.90835449 -12.79296875 3.515625 C-11.50326172 2.88914062 -11.50326172 2.88914062 -10.1875 2.25 C-9.33542969 1.82203125 -8.48335937 1.3940625 -7.60546875 0.953125 C-4.87849681 -0.04444794 -2.87779864 -0.18599776 0 0 Z " fill="#1C5AC7" transform="translate(67,20)"/>
<path d="M0 0 C0.66 0.33 1.32 0.66 2 1 C1.01 5.29 0.02 9.58 -1 14 C0.44375 13.154375 1.8875 12.30875 3.375 11.4375 C5.8359375 9.99609375 5.8359375 9.99609375 8 9 C8.66 9.33 9.32 9.66 10 10 C6.49673862 15.671947 0.88490985 18.28173212 -5 21 C-5.66 21 -6.32 21 -7 21 C-3.97969543 5.96954315 -3.97969543 5.96954315 0 0 Z " fill="#2BDFF6" transform="translate(66,30)"/>
<path d="M0 0 C0.33 0 0.66 0 1 0 C1 6.6 1 13.2 1 20 C1.66 20 2.32 20 3 20 C2.37968409 26.57534861 0.85102717 32.66692592 -1 39 C-2.32 39 -3.64 39 -5 39 C-5 35.97340025 -4.46085054 34.00846655 -3.57421875 31.13671875 C-1.77785144 24.72745761 -1.23539789 18.43531379 -0.8125 11.8125 C-0.73064453 10.66974609 -0.64878906 9.52699219 -0.56445312 8.34960938 C-0.36652209 5.56693192 -0.17854635 2.78397675 0 0 Z " fill="#2993DB" transform="translate(176,90)"/>
<path d="M0 0 C-0.00523682 0.79172607 -0.01047363 1.58345215 -0.01586914 2.39916992 C-0.03668937 5.99527184 -0.04967627 9.59136105 -0.0625 13.1875 C-0.07087891 14.43337891 -0.07925781 15.67925781 -0.08789062 16.96289062 C-0.09111328 18.16494141 -0.09433594 19.36699219 -0.09765625 20.60546875 C-0.10551147 22.26292114 -0.10551147 22.26292114 -0.11352539 23.95385742 C-0.00868135 26.76705972 0.41587567 29.25584751 1 32 C1.03824623 34.33301986 1.04574284 36.66711508 1 39 C0.34 39 -0.32 39 -1 39 C-3.03355183 30.81083181 -3.41711168 22.78581506 -3.625 14.375 C-3.66367188 13.08464844 -3.70234375 11.79429688 -3.7421875 10.46484375 C-3.83566342 7.3100313 -3.92142313 4.15521273 -4 1 C-1 0 -1 0 0 0 Z " fill="#11CBF1" transform="translate(14,83)"/>
<path d="M0 0 C0.66 0.33 1.32 0.66 2 1 C1 2.66666667 0 4.33333333 -1 6 C-1.7734375 7.3921875 -1.7734375 7.3921875 -2.5625 8.8125 C-3.036875 9.534375 -3.51125 10.25625 -4 11 C-4.66 11 -5.32 11 -6 11 C-6 11.66 -6 12.32 -6 13 C-7.8984375 14.7265625 -7.8984375 14.7265625 -10.375 16.625 C-11.59316406 17.57246094 -11.59316406 17.57246094 -12.8359375 18.5390625 C-15 20 -15 20 -17 20 C-14.60890229 11.49831927 -6.52660946 5.42471436 0 0 Z " fill="#194BA9" transform="translate(110,190)"/>
<path d="M0 0 C0.33 0 0.66 0 1 0 C1.01458252 0.60360352 1.02916504 1.20720703 1.04418945 1.82910156 C1.45131973 16.9231328 2.79667293 29.5451355 8.9140625 43.50390625 C10 46 10 46 11 49 C10.01 49.495 10.01 49.495 9 50 C8.05451801 48.19165095 7.11907546 46.37805217 6.1875 44.5625 C5.66542969 43.55316406 5.14335937 42.54382813 4.60546875 41.50390625 C0.27821718 32.05975866 -0.38807624 24.37260756 -0.1875 13.9375 C-0.17241956 12.58139514 -0.15873712 11.22527398 -0.14648438 9.86914062 C-0.11135836 6.57900398 -0.0621664 3.28971817 0 0 Z " fill="#6685B9" transform="translate(15,91)"/>
<path d="M0 0 C4.86896303 0.59619955 9.32790951 1.56976822 14 3 C10.75359085 5.560881 7.33059284 7.62476717 3.75 9.6875 C2.67234375 10.31011719 1.5946875 10.93273438 0.484375 11.57421875 C-0.33546875 12.04472656 -1.1553125 12.51523437 -2 13 C-2.33 11.68 -2.66 10.36 -3 9 C-1.02 7.68 0.96 6.36 3 5 C2.01 4.34 1.02 3.68 0 3 C0 2.01 0 1.02 0 0 Z " fill="#26C0E7" transform="translate(107,13)"/>
<path d="M0 0 C7.97778712 1.56940074 15.7309018 6.98472144 22 12 C22 12.66 22 13.32 22 14 C22.59296875 14.25523438 23.1859375 14.51046875 23.796875 14.7734375 C26.21224538 16.11816498 27.51211706 17.49214367 29.25 19.625 C29.77078125 20.25664063 30.2915625 20.88828125 30.828125 21.5390625 C31.40820312 22.26222656 31.40820312 22.26222656 32 23 C29 23 29 23 27.39453125 21.7578125 C26.87246094 21.21898438 26.35039062 20.68015625 25.8125 20.125 C25.28269531 19.59132813 24.75289062 19.05765625 24.20703125 18.5078125 C23 17 23 17 23 15 C22.195625 14.731875 21.39125 14.46375 20.5625 14.1875 C19.716875 13.795625 18.87125 13.40375 18 13 C17.67 12.01 17.34 11.02 17 10 C16.01 10 15.02 10 14 10 C14 9.34 14 8.68 14 8 C12.35 7.67 10.7 7.34 9 7 C9 6.34 9 5.68 9 5 C8.01 5.33 7.02 5.66 6 6 C5.566875 5.525625 5.13375 5.05125 4.6875 4.5625 C2.97690387 2.76313043 2.97690387 2.76313043 0 2 C0 1.34 0 0.68 0 0 Z " fill="#4375CA" transform="translate(129,21)"/>
<path d="M0 0 C1.6792238 0.63437344 3.35008418 1.29289322 5 2 C5 2.99 5 3.98 5 5 C6.32 5.33 7.64 5.66 9 6 C9 6.99 9 7.98 9 9 C6.02277453 8.29666462 3.14743457 7.41751463 0.25 6.4375 C-0.54921875 6.16808594 -1.3484375 5.89867187 -2.171875 5.62109375 C-2.77515625 5.41613281 -3.3784375 5.21117187 -4 5 C-4 4.34 -4 3.68 -4 3 C-5.98 3 -7.96 3 -10 3 C-6.47991948 -0.68008418 -5.00507813 -1.28036882 0 0 Z " fill="#206DD3" transform="translate(124,18)"/>
<path d="M0 0 C0.99 0 1.98 0 3 0 C6.91083499 7.06820635 9.72876813 12.86304398 10 21 C8.68 20.67 7.36 20.34 6 20 C5.81824219 19.20335938 5.63648438 18.40671875 5.44921875 17.5859375 C4.1263979 12.00973884 2.79116422 7.05067811 0 2 C0 1.34 0 0.68 0 0 Z " fill="#10BAEB" transform="translate(166,58)"/>
<path d="M0 0 C1 3 1 3 0.4375 5.3125 C-1.1876378 8.35080111 -3.11824495 10.23020925 -5.6015625 12.57421875 C-7.21454238 14.21873735 -8.17405807 15.85255099 -9 18 C-9.66 18 -10.32 18 -11 18 C-11.3125 15.3125 -11.3125 15.3125 -11 12 C-8.6875 9.4375 -8.6875 9.4375 -6 7 C-4.99431758 5.33675599 -3.99335201 3.67063747 -3 2 C-2.01 1.34 -1.02 0.68 0 0 Z " fill="#1662CC" transform="translate(42,32)"/>
<path d="M0 0 C4.50190418 0.49665135 6.61181186 2.04947124 9.875 5.125 C10.74125 5.9396875 11.6075 6.754375 12.5 7.59375 C13.325 8.3878125 14.15 9.181875 15 10 C16.0209375 10.94359375 16.0209375 10.94359375 17.0625 11.90625 C20.95355079 15.59603954 23.74327788 19.11043541 26 24 C25.67 24.99 25.34 25.98 25 27 C24.5875 26.38253906 24.175 25.76507813 23.75 25.12890625 C17.47723404 15.92978296 11.30319704 8.42617639 1.90625 2.3125 C1.2771875 1.879375 0.648125 1.44625 0 1 C0 0.67 0 0.34 0 0 Z " fill="#4871C0" transform="translate(139,33)"/>
<path d="M0 0 C0.66 0 1.32 0 2 0 C2.23332031 0.57105469 2.46664063 1.14210937 2.70703125 1.73046875 C5.9217912 8.87564192 10.34364691 14.30179386 15.4765625 20.1171875 C17.43617711 22.35588036 19.26408519 24.58835996 21 27 C18 27 18 27 15.80078125 25.0859375 C0 7.87127159 0 7.87127159 0 0 Z " fill="#437CCD" transform="translate(18,137)"/>
<path d="M0 0 C0.33 0 0.66 0 1 0 C1.50046947 13.31804856 0.48321733 25.12453594 -3 38 C-3.66 37.67 -4.32 37.34 -5 37 C-4.62491762 32.27396198 -4.13091036 28.26574367 -2.5 23.8125 C-0.78612908 18.8440784 -0.45433298 14.16100599 -0.3125 8.9375 C-0.27833984 8.07189453 -0.24417969 7.20628906 -0.20898438 6.31445312 C-0.12759886 4.21005613 -0.06210231 2.1050543 0 0 Z " fill="#627EB0" transform="translate(181,90)"/>
<path d="M0 0 C0.28125 2.23046875 0.28125 2.23046875 0 5 C-1.96875 7.23828125 -1.96875 7.23828125 -4.5 9.3125 C-5.3353125 10.00988281 -6.170625 10.70726562 -7.03125 11.42578125 C-7.6809375 11.94527344 -8.330625 12.46476563 -9 13 C-9.73828125 11.296875 -9.73828125 11.296875 -10 9 C-8.41796875 6.640625 -8.41796875 6.640625 -6.1875 4.25 C-5.45917969 3.45078125 -4.73085937 2.6515625 -3.98046875 1.828125 C-2 0 -2 0 0 0 Z " fill="#2755AB" transform="translate(157,157)"/>
<path d="M0 0 C3.39417765 3.12621626 5.6062718 5.56541027 7 10 C6.34 10 5.68 10 5 10 C5.37253906 10.67546875 5.74507812 11.3509375 6.12890625 12.046875 C6.83853516 13.38492188 6.83853516 13.38492188 7.5625 14.75 C8.03816406 15.63171875 8.51382813 16.5134375 9.00390625 17.421875 C10.07998186 20.20701188 10.06528748 21.26980214 9 24 C4.14746608 13.56609307 4.14746608 13.56609307 2.3125 8.5625 C1.33593889 5.91183414 0.34074112 3.47521437 -1 1 C-0.67 0.67 -0.34 0.34 0 0 Z " fill="#2A9EDF" transform="translate(161,48)"/>
<path d="M0 0 C0.94875 0.845625 1.8975 1.69125 2.875 2.5625 C6.62305499 5.78384258 10.59344811 8.5955117 14.66796875 11.38671875 C16.81996621 12.87545401 18.91780774 14.41561922 21 16 C20.01 16.33 19.02 16.66 18 17 C18 16.34 18 15.68 18 15 C17.01 15.33 16.02 15.66 15 16 C13.3515625 14.92578125 13.3515625 14.92578125 11.625 13.3125 C9.47559617 11.34563577 7.38265115 9.52713705 5.0625 7.75 C4.381875 7.1725 3.70125 6.595 3 6 C3 5.34 3 4.68 3 4 C2.01 3.67 1.02 3.34 0 3 C0 2.01 0 1.02 0 0 Z " fill="#5280D0" transform="translate(37,155)"/>
<path d="M0 0 C0 0.66 0 1.32 0 2 C0.94875 2.103125 1.8975 2.20625 2.875 2.3125 C6 3 6 3 8 6 C7.28714844 5.77183594 6.57429688 5.54367188 5.83984375 5.30859375 C-1.94533967 2.97199092 -7.43448308 2.56112867 -15 6 C-15 5.34 -15 4.68 -15 4 C-9.60931587 0.40621058 -6.46326465 -0.45356243 0 0 Z " fill="#4368A0" transform="translate(120,21)"/>
<path d="M0 0 C0.66 0.33 1.32 0.66 2 1 C1.34 2.65 0.68 4.3 0 6 C-0.66 6 -1.32 6 -2 6 C-2.103125 6.639375 -2.20625 7.27875 -2.3125 7.9375 C-2.539375 8.618125 -2.76625 9.29875 -3 10 C-3.99 10.33 -4.98 10.66 -6 11 C-6.33 9.35 -6.66 7.7 -7 6 C-4.69 4.02 -2.38 2.04 0 0 Z " fill="#0D68D0" transform="translate(167,141)"/>
<path d="M0 0 C4 0 4 0 5.6875 1.5625 C7.36313458 4.6743928 7.66411484 7.50679433 8 11 C7.34 11 6.68 11 6 11 C6 10.01 6 9.02 6 8 C5.01 8.33 4.02 8.66 3 9 C2.01 6.03 1.02 3.06 0 0 Z " fill="#2DACE4" transform="translate(14,129)"/>
<path d="M0 0 C3.34249629 0.59687434 5.46436342 1.73603877 8 4 C8 4.66 8 5.32 8 6 C8.99 6 9.98 6 11 6 C11.33 6.66 11.66 7.32 12 8 C14.01669827 9.13350534 14.01669827 9.13350534 16 10 C14.35546875 10.734375 14.35546875 10.734375 12 11 C9.23828125 9.453125 9.23828125 9.453125 6.3125 7.25 C5.33925781 6.53328125 4.36601563 5.8165625 3.36328125 5.078125 C1 3 1 3 0 0 Z " fill="#3B69BD" transform="translate(38,164)"/>
<path d="M0 0 C0.33 0.99 0.66 1.98 1 3 C3.01508358 3.73323796 3.01508358 3.73323796 5 4 C5 4.99 5 5.98 5 7 C2.02277453 6.29666462 -0.85256543 5.41751463 -3.75 4.4375 C-4.54921875 4.16808594 -5.3484375 3.89867187 -6.171875 3.62109375 C-7.07679687 3.31365234 -7.07679687 3.31365234 -8 3 C-5.08235 1.0549 -3.37462715 0.54723683 0 0 Z " fill="#0D69D6" transform="translate(128,20)"/>
<path d="M0 0 C0.66 0.33 1.32 0.66 2 1 C2 1.99 2 2.98 2 4 C-0.40625 6.26171875 -0.40625 6.26171875 -3.5 8.6875 C-4.5209375 9.49574219 -5.541875 10.30398437 -6.59375 11.13671875 C-7.3878125 11.75160156 -8.181875 12.36648437 -9 13 C-9 9.47400278 -8.46519566 9.02707839 -6.1875 6.5 C-5.40439453 5.61828125 -5.40439453 5.61828125 -4.60546875 4.71875 C-3.1027361 3.10998512 -1.56826546 1.54471793 0 0 Z " fill="#37518A" transform="translate(118,185)"/>
<path d="M0 0 C0.66 0.33 1.32 0.66 2 1 C1.03603575 6.20540698 0.12319499 10.59913433 -3 15 C-3.66 14.67 -4.32 14.34 -5 14 C-3.46527032 9.27775484 -1.76054874 4.64144669 0 0 Z " fill="#29509C" transform="translate(175,126)"/>
<path d="M0 0 C2.1640625 0.77734375 2.1640625 0.77734375 4.625 1.9375 C5.44226563 2.31777344 6.25953125 2.69804688 7.1015625 3.08984375 C7.72804688 3.39019531 8.35453125 3.69054687 9 4 C9 4.33 9 4.66 9 5 C5.37 5.33 1.74 5.66 -2 6 C-2 4.35 -2 2.7 -2 1 C-1.34 0.67 -0.68 0.34 0 0 Z " fill="#2CE0F6" transform="translate(73,3)"/>
<path d="M0 0 C4.56736441 0.70062483 8.5699505 2.31270207 12.8125 4.0625 C13.50537109 4.34416016 14.19824219 4.62582031 14.91210938 4.91601562 C16.60967624 5.60674973 18.30506312 6.30283728 20 7 C16.43676164 8.28079536 14.55496104 7.72456269 11.125 6.25 C10.25359375 5.87875 9.3821875 5.5075 8.484375 5.125 C5.61023959 3.82350472 2.79186739 2.46940389 0 1 C0 0.67 0 0.34 0 0 Z " fill="#4E6BAB" transform="translate(52,175)"/>
<path d="M0 0 C0.66 0.33 1.32 0.66 2 1 C-1.15557744 5.67025461 -3.8641579 7.12344231 -9 9 C-9 7.68 -9 6.36 -9 5 C-7.54735962 4.1361871 -6.0876837 3.28419546 -4.625 2.4375 C-3.40683594 1.72400391 -3.40683594 1.72400391 -2.1640625 0.99609375 C-1.44992188 0.66738281 -0.73578125 0.33867188 0 0 Z " fill="#11C9EC" transform="translate(74,39)"/>
<path d="M0 0 C1.32 0.33 2.64 0.66 4 1 C1.14762021 4.45743005 -0.14528078 5.89859263 -4.6875 6.4375 C-8 6 -8 6 -10 4 C-6.97265625 3.75585938 -6.97265625 3.75585938 -3.9453125 3.51171875 C-1.60480784 3.12606964 -1.60480784 3.12606964 0 0 Z " fill="#3F5890" transform="translate(148,146)"/>
<path d="M0 0 C-1.44781793 3.44428265 -3.27694609 5.36130962 -6.125 7.75 C-7.21167969 8.67039063 -7.21167969 8.67039063 -8.3203125 9.609375 C-8.87460938 10.06828125 -9.42890625 10.5271875 -10 11 C-10.66 10.67 -11.32 10.34 -12 10 C-10.57282151 8.32448647 -9.13291518 6.65980691 -7.6875 5 C-6.88699219 4.071875 -6.08648437 3.14375 -5.26171875 2.1875 C-3 0 -3 0 0 0 Z " fill="#254081" transform="translate(169,130)"/>
<path d="M0 0 C0.33 0.99 0.66 1.98 1 3 C1.66 3 2.32 3 3 3 C3.33 2.01 3.66 1.02 4 0 C4.625 2.875 4.625 2.875 5 6 C4.34 6.66 3.68 7.32 3 8 C2.83312552 10.58354218 2.83312552 10.58354218 3 13 C0.41073669 10.41073669 0.62601957 8.97294721 0.375 5.375 C0.30023438 4.37210937 0.22546875 3.36921875 0.1484375 2.3359375 C0.09945312 1.56507812 0.05046875 0.79421875 0 0 Z " fill="#2CA4DF" transform="translate(173,76)"/>
<path d="M0 0 C0.99 0 1.98 0 3 0 C3.33 2.97 3.66 5.94 4 9 C2.68 8.67 1.36 8.34 0 8 C-0.79953138 4.71303767 -1.09658936 3.28976808 0 0 Z " fill="#2BCBEF" transform="translate(172,70)"/>
<path d="M0 0 C2.00384991 3.00577487 3.26119742 5.84977264 4.625 9.1875 C5.07101563 10.27417969 5.51703125 11.36085937 5.9765625 12.48046875 C6.31429688 13.31191406 6.65203125 14.14335937 7 15 C6.01 15.495 6.01 15.495 5 16 C-0.74031891 5.62642369 -0.74031891 5.62642369 0 0 Z " fill="#577BC0" transform="translate(19,125)"/>
<path d="M0 0 C0.99 0 1.98 0 3 0 C3.33 0.99 3.66 1.98 4 3 C2.82287058 4.17712942 1.63840242 5.34713368 0.4375 6.5 C-1.10300302 7.95935935 -1.10300302 7.95935935 -2 10 C-2.66 10 -3.32 10 -4 10 C-2.8905928 6.51329166 -1.73662334 3.22515763 0 0 Z " fill="#3E8FDB" transform="translate(20,57)"/>
<path d="M0 0 C0.33 0.66 0.66 1.32 1 2 C0.06421005 4.35981813 -0.93347808 6.69631264 -2 9 C-2.66 8.34 -3.32 7.68 -4 7 C-4.99 7.495 -4.99 7.495 -6 8 C-5.25 3.25 -5.25 3.25 -3 1 C-2.34 1 -1.68 1 -1 1 C-0.67 0.67 -0.34 0.34 0 0 Z " fill="#227CD6" transform="translate(27,51)"/>
<path d="M0 0 C3.25914951 3.08297927 6.06553673 5.9161331 8 10 C7.67 10.99 7.34 11.98 7 13 C5.82479354 11.40207898 4.66008753 9.79643092 3.5 8.1875 C2.8503125 7.29417969 2.200625 6.40085937 1.53125 5.48046875 C0 3 0 3 0 0 Z " fill="#4E82D0" transform="translate(157,47)"/>
<path d="M0 0 C-1.38188453 3.21043882 -2.92421903 5.04936365 -5.625 7.25 C-6.57246094 8.03117187 -6.57246094 8.03117187 -7.5390625 8.828125 C-8.02117188 9.21484375 -8.50328125 9.6015625 -9 10 C-8.42110619 6.71245489 -7.45171589 5.06327505 -5.0625 2.75 C-4.53785156 2.22921875 -4.01320313 1.7084375 -3.47265625 1.171875 C-2 0 -2 0 0 0 Z " fill="#57688F" transform="translate(43,39)"/>
<path d="M0 0 C4.86896303 0.59619955 9.32790951 1.56976822 14 3 C12.68 3.33 11.36 3.66 10 4 C10 4.66 10 5.32 10 6 C6.44499595 4.28379115 3.28480622 2.18987081 0 0 Z " fill="#5BD6E6" transform="translate(75,4)"/>
<path d="M0 0 C0.185625 0.9590625 0.185625 0.9590625 0.375 1.9375 C0.684375 2.9584375 0.684375 2.9584375 1 4 C1.66 4.33 2.32 4.66 3 5 C2.34 6.32 1.68 7.64 1 9 C-0.32 8.34 -1.64 7.68 -3 7 C-2.01 4.69 -1.02 2.38 0 0 Z " fill="#3D96DD" transform="translate(173,121)"/>
<path d="M0 0 C1.39195915 4.17587745 -0.17676781 6.13474776 -2 10 C-2.99 10 -3.98 10 -5 10 C-5 8.68 -5 7.36 -5 6 C-4.34 6 -3.68 6 -3 6 C-2.690625 5.195625 -2.38125 4.39125 -2.0625 3.5625 C-1 1 -1 1 0 0 Z " fill="#0A86DB" transform="translate(21,61)"/>
<path d="M0 0 C0.99 0.495 0.99 0.495 2 1 C3.1577506 4.47325181 3.06866652 7.36067448 3 11 C2.34 11 1.68 11 1 11 C-0.17571451 7.32589215 -0.07366746 3.83070817 0 0 Z " fill="#13DFF7" transform="translate(12,111)"/>
<path d="M0 0 C0.33 0 0.66 0 1 0 C0.67 3.3 0.34 6.6 0 10 C-0.66 9.34 -1.32 8.68 -2 8 C-1.42307692 1.42307692 -1.42307692 1.42307692 0 0 Z M-4 8 C-3.01 8.495 -3.01 8.495 -2 9 C-2.99 10.485 -2.99 10.485 -4 12 C-4 10.68 -4 9.36 -4 8 Z " fill="#0D94DE" transform="translate(15,75)"/>
<path d="M0 0 C5.53846154 0.49230769 5.53846154 0.49230769 7.875 3.0625 C8.431875 4.0215625 8.431875 4.0215625 9 5 C7.3125 5.8125 7.3125 5.8125 5 6 C2.25 3.625 2.25 3.625 0 1 C0 0.67 0 0.34 0 0 Z " fill="#097EDA" transform="translate(140,30)"/>
<path d="M0 0 C0 3.9519815 -1.37176172 5.14648416 -4 8 C-4.99 8.33 -5.98 8.66 -7 9 C-7 7.68 -7 6.36 -7 5 C-5.46875 3.515625 -5.46875 3.515625 -3.5 2.25 C-2.8503125 1.82203125 -2.200625 1.3940625 -1.53125 0.953125 C-1.0259375 0.63859375 -0.520625 0.3240625 0 0 Z " fill="#0FB3E7" transform="translate(111,17)"/>
<path d="M0 0 C0.33 0.66 0.66 1.32 1 2 C0.67 2.66 0.34 3.32 0 4 C0.66 4.33 1.32 4.66 2 5 C1.195625 5.268125 0.39125 5.53625 -0.4375 5.8125 C-1.283125 6.204375 -2.12875 6.59625 -3 7 C-3.33 7.99 -3.66 8.98 -4 10 C-4.66 9.67 -5.32 9.34 -6 9 C-4.02 6.03 -2.04 3.06 0 0 Z " fill="#337CD5" transform="translate(168,135)"/>
<path d="M0 0 C0.66 0.33 1.32 0.66 2 1 C0.35 2.65 -1.3 4.3 -3 6 C-3.99 5.67 -4.98 5.34 -6 5 C-6 4.34 -6 3.68 -6 3 C-4.03533587 1.93224776 -2.03144641 0.93446535 0 0 Z " fill="#4BD6F1" transform="translate(41,90)"/>
<path d="M0 0 C-1.43570266 0.81567174 -2.87363434 1.62742093 -4.3125 2.4375 C-5.51326172 3.11619141 -5.51326172 3.11619141 -6.73828125 3.80859375 C-9 5 -9 5 -12 6 C-10.90012224 2.70036671 -10.54413252 2.38935228 -7.6875 0.75 C-7.09324219 0.39421875 -6.49898437 0.0384375 -5.88671875 -0.328125 C-3.5508436 -1.15994803 -2.30725794 -0.7945524 0 0 Z " fill="#4F6089" transform="translate(61,29)"/>
<path d="M0 0 C4.95 0.99 4.95 0.99 10 2 C9.67 2.99 9.34 3.98 9 5 C7.68 4.67 6.36 4.34 5 4 C5 3.34 5 2.68 5 2 C3.35 2.33 1.7 2.66 0 3 C0 2.01 0 1.02 0 0 Z " fill="#50D0E7" transform="translate(98,10)"/>
<path d="M0 0 C3.7952131 1.49097658 5.61042731 3.75700849 8 7 C5 7 5 7 2.3125 4.625 C0 2 0 2 0 0 Z " fill="#547DCA" transform="translate(31,157)"/>
<path d="M0 0 C0.99 0.33 1.98 0.66 3 1 C1.68 3.64 0.36 6.28 -1 9 C-1.33 9 -1.66 9 -2 9 C-1.125 2.25 -1.125 2.25 0 0 Z " fill="#4563A2" transform="translate(169,140)"/>
<path d="M0 0 C0 2.64 0 5.28 0 8 C-0.99 7.67 -1.98 7.34 -3 7 C-3.33 5.02 -3.66 3.04 -4 1 C-1 0 -1 0 0 0 Z " fill="#38B7EA" transform="translate(14,83)"/>
<path d="M0 0 C0.53625 0.28875 1.0725 0.5775 1.625 0.875 C4.35280484 2.16711808 7.12612718 3.08558592 10 4 C8.25 5.125 8.25 5.125 6 6 C3.1825554 5.17133982 2.24390498 4.41463847 0.75 1.875 C0.5025 1.25625 0.255 0.6375 0 0 Z " fill="#3566BF" transform="translate(126,24)"/>
<path d="M0 0 C1.17539996 0.92652701 2.34010577 1.86663387 3.5 2.8125 C4.1496875 3.33457031 4.799375 3.85664063 5.46875 4.39453125 C7 6 7 6 7 9 C5 7.625 5 7.625 3 6 C3 5.34 3 4.68 3 4 C2.01 3.67 1.02 3.34 0 3 C0 2.01 0 1.02 0 0 Z " fill="#4675C8" transform="translate(37,155)"/>
<path d="M0 0 C1.65 0 3.3 0 5 0 C5 1.32 5 2.64 5 4 C3.35 4 1.7 4 0 4 C0 2.66666667 0 1.33333333 0 0 Z " fill="#1868D4" transform="translate(62,20)"/>
</svg>
